<svg width="30" height="30" viewBox="0 0 30 30" fill="none" xmlns="http://www.w3.org/2000/svg">
<path d="M13.5498 21.0498C13.3404 21.2593 13.3404 21.5979 13.5498 21.8073C13.6543 21.9118 13.7915 21.9643 13.9286 21.9643C14.0657 21.9643 14.2029 21.9118 14.3073 21.8073L20.7354 15.3793C20.7852 15.33 20.8243 15.2705 20.8516 15.2046C20.9057 15.0739 20.9057 14.9266 20.8516 14.7954C20.8243 14.7295 20.7847 14.67 20.7354 14.6202L14.3073 8.19267C14.0979 7.98321 13.7593 7.98321 13.5498 8.19267C13.3404 8.40214 13.3404 8.74071 13.5498 8.95017L19.064 14.4643H2.6786C2.38235 14.4643 2.14288 14.7037 2.14288 15C2.14288 15.2962 2.38235 15.5357 2.6786 15.5357H19.064L13.5498 21.0498Z" fill="#84E900"/>
<path d="M27.3214 0H7.50001C7.20376 0 6.96429 0.239464 6.96429 0.535714V11.7857C6.96429 12.082 7.20376 12.3214 7.50001 12.3214C7.79626 12.3214 8.03572 12.082 8.03572 11.7857V1.07143H26.7857V28.9286H8.03572V18.2143C8.03572 17.918 7.79626 17.6786 7.50001 17.6786C7.20376 17.6786 6.96429 17.918 6.96429 18.2143V29.4643C6.96429 29.7605 7.20376 30 7.50001 30H27.3214C27.6177 30 27.8572 29.7605 27.8572 29.4643V0.535714C27.8572 0.239464 27.6177 0 27.3214 0Z" fill="#84E900"/>
</svg>
