<svg width="18" height="18" viewBox="0 0 18 18" fill="none" xmlns="http://www.w3.org/2000/svg">
<path d="M9 0C4.03754 0 0 4.03719 0 9C0 13.9628 4.03754 18 9 18C13.9625 18 18 13.9628 18 9C18 4.03719 13.9625 0 9 0ZM9 17.3077C4.41935 17.3077 0.692308 13.5807 0.692308 9C0.692308 4.41935 4.41935 0.692308 9 0.692308C13.5807 0.692308 17.3077 4.41935 17.3077 9C17.3077 13.5807 13.5807 17.3077 9 17.3077Z" fill="#323232"/>
<path d="M13.2411 5.30861L7.92104 11.2936L4.716 8.72965C4.56715 8.61023 4.34873 8.6348 4.22965 8.78365C4.11023 8.93319 4.13446 9.15092 4.28365 9.27034L7.74519 12.0396C7.80888 12.0905 7.88538 12.1154 7.96154 12.1154C8.05708 12.1154 8.15227 12.0759 8.22046 11.9991L13.7589 5.7683C13.886 5.62569 13.8732 5.40657 13.7302 5.27988C13.5869 5.1525 13.3685 5.1653 13.2411 5.30861Z" fill="#323232"/>
</svg>
