<svg width="18" height="18" viewBox="0 0 18 18" fill="none" xmlns="http://www.w3.org/2000/svg">
<path d="M9 0C4.0374 0 0 4.0374 0 9C0 13.9626 4.0374 18 9 18C13.9626 18 18 13.9626 18 9C18 4.0374 13.9626 0 9 0ZM9 17.4C4.3683 17.4 0.6 13.6317 0.6 9C0.6 4.3683 4.3683 0.6 9 0.6C13.6317 0.6 17.4 4.3683 17.4 9C17.4 13.6317 13.6317 17.4 9 17.4Z" fill="#323232"/>
<path d="M8.99999 1.8C8.83439 1.8 8.69999 1.9341 8.69999 2.1V9H4.19999C4.03439 9 3.89999 9.1341 3.89999 9.3C3.89999 9.4659 4.03439 9.6 4.19999 9.6H8.99999C9.16559 9.6 9.29999 9.4659 9.29999 9.3V2.1C9.29999 1.9341 9.16559 1.8 8.99999 1.8Z" fill="#323232"/>
</svg>
